inDegrees=no
num_controls=7
num_derivatives=13
num_iterations=104
num_multipliers=7
num_parameters=0
num_slacks=7
num_states=26
objective=5.355411
objective_accelerations=0.792584
objective_balance=0.023622
objective_effort=0.248339
objective_height=4.263922
objective_ligament=0.026944
solver_duration=2197.798624
status=Solve_Succeeded
success=true
DataType=double
version=3
OpenSimVersion=4.4-2022-07-23-0e9fedc
endheader
time	/jointset/ground_pelvis/pelvis_tilt/value	/jointset/ground_pelvis/pelvis_tx/value	/jointset/ground_pelvis/pelvis_ty/value	/jointset/hip_l/hip_flexion_l/value	/jointset/hip_l/hip_adduction_l/value	/jointset/hip_l/hip_rotation_l/value	/jointset/back/lumbar_extension/value	/jointset/patellofemoral_l/patellar_flexion_l/value	/jointset/knee_l/knee_flexion_l/value	/jointset/knee_l/knee_adduction_l/value	/jointset/knee_l/knee_rotation_l/value	/jointset/ankle_l/ankle_angle_l/value	/jointset/subtalar_l/subtalar_angle_l/value	/jointset/ground_pelvis/pelvis_tilt/speed	/jointset/ground_pelvis/pelvis_tx/speed	/jointset/ground_pelvis/pelvis_ty/speed	/jointset/hip_l/hip_flexion_l/speed	/jointset/hip_l/hip_adduction_l/speed	/jointset/hip_l/hip_rotation_l/speed	/jointset/back/lumbar_extension/speed	/jointset/patellofemoral_l/patellar_flexion_l/speed	/jointset/knee_l/knee_flexion_l/speed	/jointset/knee_l/knee_adduction_l/speed	/jointset/knee_l/knee_rotation_l/speed	/jointset/ankle_l/ankle_angle_l/speed	/jointset/subtalar_l/subtalar_angle_l/speed	/forceset/tau_hip_flexion_l	/forceset/tau_hip_adduction_l	/forceset/tau_hip_rotation_l	/forceset/tau_knee_flexion_l	/forceset/tau_ankle_angle_l	/forceset/tau_subtalar_angle_l	/forceset/tau_lumbar_extension	lambda_cid13_p0	lambda_cid13_p1	lambda_cid13_p2	lambda_cid13_p3	lambda_cid13_p4	lambda_cid13_p5	lambda_cid14_p0	/jointset/ground_pelvis/pelvis_tilt/accel	/jointset/ground_pelvis/pelvis_tx/accel	/jointset/ground_pelvis/pelvis_ty/accel	/jointset/hip_l/hip_flexion_l/accel	/jointset/hip_l/hip_adduction_l/accel	/jointset/hip_l/hip_rotation_l/accel	/jointset/back/lumbar_extension/accel	/jointset/patellofemoral_l/patellar_flexion_l/accel	/jointset/knee_l/knee_flexion_l/accel	/jointset/knee_l/knee_adduction_l/accel	/jointset/knee_l/knee_rotation_l/accel	/jointset/ankle_l/ankle_angle_l/accel	/jointset/subtalar_l/subtalar_angle_l/accel	gamma_cid13_p0	gamma_cid13_p1	gamma_cid13_p2	gamma_cid13_p3	gamma_cid13_p4	gamma_cid13_p5	gamma_cid14_p0
0	0.04913470145522366	0.1076189625173907	0.902885710553548	0.1266917050730164	-0.3699288600255481	-0.2180851867588267	-0.2144974744115991	0.2051547269257078	0.2051547269256735	-0.1745306241953661	-0.1535587588022378	0.09024399430361882	0.07906105983072124	0	0	0	0	0	0	0	0	0	0	0	0	0	0.1101042135890975	-0.05402484161330771	-0.001360356297767014	-0.1971014789864635	0.06307223273695549	-0.06292885220782138	-0.0523501724283396	-10.76627102583571	27.24718955171456	-2.377134396579451	29.92072962496094	-447.7551197798278	-61.57396752044435	-26.02219481944485	-6.484351490754959	-2.91183828674031	-0.9736326832855805	15.90211678915461	-0.2076281722805285	2.66848462201824	-4.221087021802787	8.313129925523496	8.313129925523153	1.503613968806327	-0.8338645689510761	-0.4928276753617198	-0.406147143650521	2.020813804407187e-08	2.90828798018475e-07	-2.972866682078592e-08	2.323347477067502e-10	1.456183675484997e-07	1.351859200305281e-07	2.795779466948517e-08
0.01	0.04882014730160009	0.1074762693742654	0.9028383424423779	0.127465878055898	-0.3699390934471613	-0.2179477577346603	-0.2147135956135041	0.2055584224435565	0.2055584224434068	-0.1744583585474526	-0.1535919590037376	0.09021884946075322	0.07904071165039679	-0.06275297018892735	-0.02829009756365063	-0.009451329111664313	0.1540991223257469	-0.002041641085860094	0.02736498468861535	-0.04290941982961158	0.08033648911999709	0.0803364891199963	0.01436206871787107	-0.006580487873036586	-0.004880423894869692	-0.00401791350724555	0.1110513215533588	-0.06214257403843691	-0.002008135933489639	-0.2027321280990401	0.07208355979595311	-0.05781398705429476	-0.05229044484014141	-7.509160198369234	24.68330211819348	-2.228576059324646	25.98487585386039	-448.0562181689542	-67.30233774203677	-26.02257467608296	-6.147094822375315	-2.750315786733439	-0.9275099332047735	15.05348662120985	-0.2017144932999923	2.752395169720894	-4.278646380113292	7.833510647467874	7.833510647467503	1.388888269551411	-0.5612188580438414	-0.4633576240688976	-0.3918977533737866	-4.640882099891916e-09	3.954222413036098e-07	2.224999270092782e-08	2.442936986368088e-08	-9.539770129775746e-08	9.344858974252087e-08	3.784618202028812e-08
0.02	0.04788279843818249	0.1070581311963894	0.902697135658469	0.1297589775954066	-0.3699695997629926	-0.2175403009081962	-0.2153493663970396	0.206753403300996	0.2067534033009835	-0.174245195222799	-0.1536891796762992	0.09014935880339411	0.07898172747517745	-0.1245589419544185	-0.05508900695014306	-0.01876773454776262	0.3037853113283536	-0.004054578834288202	0.0540055604747617	-0.0839299163220832	0.1582570679292138	0.1582570679292137	0.02817953528671729	-0.01280409420863829	-0.00886916289050636	-0.007727198978985485	0.1119984295179992	-0.07026030646305066	-0.00265591556913822	-0.2083627772110232	0.08109488685536663	-0.05269912190008855	-0.05223071725207444	-4.215793361640902	22.11494241158126	-2.081449916119632	22.1214740685472	-447.6460260695051	-72.92074790447205	-26.02353871914253	-6.294951806067176	-2.613600651309113	-0.946647948172429	15.01953012452651	-0.2018875047948195	2.523602841524606	-3.843302354374616	7.829947863367568	7.829947863367527	1.394693539000013	-0.762488261464367	-0.314490695515746	-0.3444215365503483	-2.94899022438557e-08	5.000156845887446e-07	7.422865222264156e-08	4.862640497965501e-08	-3.364137701440146e-07	5.171125945451361e-08	4.773456937109107e-08
0.03	0.04633252524129327	0.1063781550237896	0.9024631499087958	0.1335285881614567	-0.3700197736001173	-0.216870789747453	-0.2163851735897097	0.2087162888456942	0.2087162888457263	-0.1738959000490273	-0.1538476843044305	0.09004309323159385	0.0788871452344108	-0.1852258595330559	-0.08078456877558533	-0.02802627645996943	0.4494554558300324	-0.005952935950647126	0.07978704442799535	-0.1229175612354075	0.2339288144584079	0.2339288144584011	0.04161726636479016	-0.01882150064881932	-0.01238577510703162	-0.01115862175206533	0.1080872913568004	-0.06778255713502271	-0.002021591799826394	-0.2053549078648273	0.07918031761602538	-0.05357532806646561	-0.04914532698482636	-4.799683099323633	22.51902427439954	-2.055988547107365	21.84161419791116	-446.7828137834035	-71.42413782883264	-26.02481442718307	-5.912084672286428	-2.529275307543023	-0.9150547302431677	14.23855073662748	-0.1798035523686906	2.588980824757958	-3.879401412856196	7.377094478153574	7.37709447815238	1.309070397570326	-0.510066158032363	-0.3705051944975679	-0.3379959680272644	-4.0120782222676e-08	5.702539341406792e-07	9.126863834787135e-08	6.16561714051602e-08	-4.685076670280441e-07	3.787827988392818e-08	5.70419163641101e-08
0.04	0.0441836782809111	0.105444874961057	0.902136659256499	0.1387344589972138	-0.3700881297558562	-0.2159467518166466	-0.217801438402129	0.2114241531417995	0.2114241531417899	-0.1734140760632556	-0.1540641028614535	0.08990160979567619	0.0787591501018452	-0.2442736946525756	-0.1057497849767031	-0.03726871507252989	0.5910373652772314	-0.007691042559492943	0.1049109144826489	-0.1600214402704701	0.3072528182059368	0.3072528182059232	0.05468529765722191	-0.02438687999850262	-0.01591273571462787	-0.01440977733877965	0.1041761531950686	-0.06530480780702361	-0.001387268030897037	-0.2023470385189113	0.07726574837656904	-0.05445153423290416	-0.04605993671787603	-5.350852073933017	22.91963043356586	-2.032548897111116	21.62524335287981	-445.2807123895674	-69.82281153839072	-26.02586517245982	-5.971135314242955	-2.467531526444784	-0.9434272882431544	14.20188311363065	-0.1698374032923852	2.392080061808614	-3.466549178722076	7.360399307034679	7.36039930703464	1.320753581871483	-0.6720828433649894	-0.3165603737305894	-0.3083680992776408	-5.045850467231808e-08	6.397838291826509e-07	1.075882394546169e-07	7.445568486797531e-08	-5.983557459334709e-07	2.462064775081537e-08	6.633728314356659e-08
